<?xml version="1.0" encoding="utf-8"?>
<!-- Generator: Adobe Illustrator 27.6.0, SVG Export Plug-In . SVG Version: 6.00 Build 0)  -->
<svg version="1.1" xmlns="http://www.w3.org/2000/svg" xmlns:xlink="http://www.w3.org/1999/xlink" x="0px" y="0px"
	 viewBox="0 0 137.86 38.64" style="enable-background:new 0 0 137.86 38.64;" xml:space="preserve">
<style type="text/css">
	.st0{fill:#FFFFFF;}
	.st1{display:none;}
	.st2{display:inline;fill:#222221;}
	.st3{display:inline;}
	.st4{fill:#222221;}
</style>
<g id="Background">
	<rect id="XMLID_79_" x="-184.98" y="-258.26" class="st0" width="500" height="500"/>
</g>
<g id="Elements" class="st1">
	<path id="XMLID_2354_" class="st2" d="M-15.05-67.35c5.34,0,17.35-2.98,14.9,5.72c-1.87,6.65-1.67,14.01-3.24,20.8
		c-0.59,2.53-1.2,7-4.16,7.86c-2.43,0.7-4.11-1-4.59-3.25c-1.56-7.35,5.38-14.94,4.59-22.02c-7.02,3.85-12.71,10.87-19.26,15.56
		c-6.92,4.96-13.8,9.91-21.19,14.16c-6.07,3.5-14.36,8.4-21.41,4.69c-6.94-3.65-8.04-13.66-8.62-20.6
		c-0.33-3.96-0.73-7.95-0.98-11.9c-0.25-3.8-0.46-8.61-2.9-11.8c-4.39-5.75-16.37,1.55-21.1,4.2c-7.65,4.3-15.24,8.66-23.11,12.56
		c-6.02,2.98-14.09,5.99-19.21-0.06c-5.39-6.38-4.79-16.67-4.1-24.44c0.76-8.5,2.92-18.14,6.75-25.8c0.45-0.89,4.27-7.34,5.08-3.76
		c0.09,0.4-1.62,2.88-1.86,3.47c-0.89,2.2-1.53,4.4-2.17,6.68c-1.84,6.55-2.92,12.99-3.64,19.57c-0.64,5.83-1.67,19.41,5.18,22.56
		c3.5,1.61,7.79-1.06,10.85-2.51c4.15-1.96,8.02-4.46,11.98-6.77c9.41-5.49,28.73-21.24,39.57-11.15
		c5.69,5.29,5.77,15.79,6.34,22.98c0.43,5.46-0.01,20.79,8.05,20.63c4.14-0.09,8.67-3.33,12.05-5.44c4.14-2.59,8.27-5.17,12.35-7.86
		c4.3-2.84,8.58-5.71,12.84-8.62c4.04-2.77,8.99-5.07,12.67-8.25c-3.6-1.23-14.06,1.41-16.25-2.47
		C-32.8-68.21-17.5-67.35-15.05-67.35z"/>
	<path id="XMLID_2353_" class="st2" d="M157.99-98.09c7.71,0,15.47-0.28,23.14,0.54c3.49,0.37,7.01,0.75,10.47,1.36
		c2.56,0.45,7.69,0.48,9.52,2.72c5.7,6.98-22.1,18.85-26.53,21.28c-6.35,3.49-12.86,6.75-19.18,10.31c-1.05,0.59-8.03,3.6-8.21,4.86
		c-0.15,1.06,4.48,1.54,5.54,1.76c7.19,1.5,31.81,3.11,30.57,14.74c-0.76,7.11-11.4,12.47-16.63,15.9
		c-3.08,2.02-6.19,3.98-9.34,5.88c-2.47,1.49-6.81,2.96-8.23,5.64c4.46,1.73,18.43-7.41,20.24-0.11c1.31,5.27-7.61,4.81-10.62,5.37
		c-4.07,0.75-8.34,1.44-12.54,1.98c-3.85,0.5-10.82,1.94-11.58-3.56c-0.57-4.17,1.45-10.09,2.29-14.25
		c0.45-2.22,2.08-12.99,6.13-8.87c3.37,3.43-1.04,11.24,0.26,15.22c6.38-5.56,13.87-9.66,20.89-14.33c3.27-2.17,6.73-4.35,9.6-7.03
		c3.65-3.41,0.86-4.43-3.01-5.77c-6.68-2.31-13.83-2.99-20.68-4.47c-3.22-0.7-8.54-1.44-10.72-4.21c-2.64-3.36,0.4-6.7,3.09-8.75
		c6.58-5,14.73-8.41,22.07-12.14c8.25-4.19,16.54-8.29,24.57-12.9c0.44-0.26,4.61-2.22,4.66-2.93c0.07-1.04-2.77-0.89-3.48-0.98
		c-3.64-0.46-7.27-1.18-10.89-1.57c-8.28-0.91-16.86-1.15-25.21-1.24c-5.1-0.05-10.16-0.47-15.26-0.52
		c-1.52-0.02-10.21,1.17-8.92-1.65c0.97-2.13,10.07-2.15,11.98-2.27C147.3-98.38,152.7-98.09,157.99-98.09z"/>
	<path id="XMLID_2352_" class="st2" d="M245.66,9.5c5.06,0,10.16-0.31,15.2-0.64c2.5-0.16,4.99-0.22,7.49-0.4
		c2.07-0.15,5.39,0.5,7.2-0.74c-2.28-1.38-4.61-2.64-6.42-4.66c-2.33-2.62-1.2-4.72,2.27-3.57c3.28,1.09,5.8,2.99,8.69,4.85
		c2.27,1.46,6.32,3.04,5.31,6.55c-0.53,1.84-4,4.75-5.1,6.56c-1.63,2.69-2.95,6.37-5.07,8.7c-1.88,2.08-5.2,2.62-5.22-1
		c-0.02-3.51,3.93-6.52,5.14-9.54c-2.12-0.58-5.18,0.29-7.4,0.45c-3.18,0.22-6.37,0.36-9.55,0.59c-6.7,0.49-13.28,0.7-19.98,0.37
		c-9.51-0.47-26.85-1.71-30.34-12.79C204.04-8,221.92-17.92,230.53-22.52c11.6-6.19,24.61-10.22,37.6-11.73
		c8.68-1.01,23.08,3.55,17.7,14.93c-2.94,6.22-8.69,10.76-15.12,13.01c-3.97,1.4-15.24,3.94-18.45-0.1
		c-2.37-2.99,1.98-1.84,3.45-1.64c2.03,0.28,4.2,0.31,6.3,0.12c6.07-0.56,12.06-3.76,16.15-8.22c4.44-4.84,5.95-10.18-1.56-12.16
		c-6.51-1.72-13.52-0.19-19.84,1.72C243.38-22.54,227.19-15.38,218-4.46c-1.48,1.75-3.58,4.6-2.46,7.01
		c1.11,2.39,5.38,3.57,7.67,4.24C230.66,8.97,238.07,8.65,245.66,9.5C246.3,9.5,243.93,9.31,245.66,9.5z"/>
	<path id="XMLID_2351_" class="st2" d="M146.3,145.5c-0.48-5.27,2.62-12.52,7.22-15.41c1.14-0.72,5.38-2.31,5.72,0.15
		c0.16,1.13-2.33,2.58-3.06,3.77c-2.29,3.77-3.67,8.12-2.73,12.38c1,4.55,3.85,11.58,9.46,11.76c6,0.2,13.39-6.6,18.42-9.41
		c5.57-3.11,11.38-5.19,17.44-6.95c10.72-3.11,21.88,0.71,30.76,6.88c5.81,4.04,11.23,7.64,18.58,7.05c3.8-0.31,7.47-1.51,11.15-2.4
		c3-0.73,6.43-1.14,9.19-2.57c-4.17-1.34-8.28-2.66-12.29-4.45c-1.45-0.65-9.5-5.25-4.07-6.74c1.53-0.42,4.72,1.4,6.27,1.89
		c2.34,0.74,4.73,1.45,7.1,2.09c3.32,0.91,10.81,0.49,12.7,3.86c1.68,2.99-2.17,8.57-3.54,11.33c-1.84,3.7-3.95,6.81-6.39,10.07
		c-0.58,0.77-1.61,3.44-2.76,3.36c-1.73-0.11-1.33-2.58-1.27-3.71c0.13-2.51,0.71-4.68,1.7-6.99c0.35-0.81,2.95-4.72,2.47-5.24
		c-0.71-0.76-15.84,5.5-17.83,6.14c-6.1,1.96-12.04,1.55-17.81-1.21c-5.83-2.79-10.67-7.22-16.56-9.89
		c-5.51-2.5-10.77-2.37-16.43-1.4c-5.95,1.02-11.65,3.44-16.84,6.44c-5.01,2.9-10.21,6.7-15.8,8.34
		C154.28,168.42,147.66,156.3,146.3,145.5C145.96,141.73,146.47,146.82,146.3,145.5z"/>
	<path id="XMLID_2348_" class="st2" d="M217.24-151.47c0,6.23,1.91,13.48,7.85,16.66c2.6,1.39,5.93,1.84,8.81,2.4
		c2.12,0.41,6.66,2.19,8.56,1.41c-1.8-1.8-8.04-17.52-2.59-16.78c2.53,0.34,4.76,7.39,5.8,9.31c0.94,1.73,1.76,3.61,3.01,5.15
		c1.14,1.4,2.77,2,2.85,4.05c0.13,3.32-4.22,5.49-6.21,7.51c-2.7,2.75-5.15,6.76-8.52,8.71c-2.95,1.7-6.45,0.32-5.33-3.42
		c0.88-2.94,4.14-5.69,6.25-7.81c-5.99-0.63-12.97-1.26-18.12-4.71c-5.02-3.36-7.65-8.55-9.34-14.16
		c-4.07-13.46,2.25-26.54,13.15-34.56c2.06-1.52,5.42-2.49,6.65-4.75c0.69-1.26,0.7-3.19,1.29-4.57c0.64-1.49,1.49-2.95,2.36-4.32
		c3.59-5.63,9.17-10.04,15.01-13.12c4.36-2.3,10.01-3.88,14.89-3.97c2.65-0.04,6.17,0.7,8.04,2.65c0.43,0.45,1.81,2.04,1.52,2.81
		c-0.54,1.43-1.31-0.2-1.95-0.59c-6.21-3.83-14.22-0.76-20.11,2.51c-3.51,1.95-6.7,4.52-9.46,7.43c-1.75,1.84-6.21,6.52-5.76,9.14
		c5.1-3.09,13.99-3.27,19.23-0.57c8.94,4.6,4.37,14.24-3.29,16.92c-4.21,1.47-9.68,1.78-13.85-0.01c-1.78-0.76-3.5-1.96-4.87-3.32
		c-1.7-1.7-1.37-2.65-3.65-1.19C222.25-168.06,217.24-160.02,217.24-151.47z M244.94-172.5c2.35-1.07,8.84-0.78,9.33-4.56
		c0.46-3.56-6.54-3.31-8.54-3.03c-1.79,0.25-8.95,1.44-9.31,3.52C235.98-174.12,243.59-172.76,244.94-172.5
		C246.1-173.03,241.86-173.11,244.94-172.5z"/>
	<path id="XMLID_2345_" class="st2" d="M140.25-165.88c-3.14,0.12-6.05-0.6-8.85-1.96c-2.36-1.15-2.27-1.39-3.75,1.27
		c-2.28,4.09-4.04,8.07-4.22,12.76c-0.13,3.33,0.48,6.48,2.83,9.05c2.55,2.79,9.78,6.6,13.63,6.39c-1.42-3.08-1.61-7-2.03-10.33
		c-0.32-2.54-0.88-9.45,3.68-6c3.06,2.32,3.5,8.63,4.72,12.06c0.63,1.79,1.27,3.6,2.16,5.27c0.88,1.64,2.44,3.03,2.26,5.02
		c-0.3,3.36-5.87,5.02-8.33,6.59c-2.54,1.62-7.99,6.73-11.37,5.17c-7.96-3.68,8.58-11,8.21-11.97c-0.46-1.2-7.74-1.19-9.25-1.58
		c-4.12-1.06-8.05-3.32-10.75-6.66c-5.24-6.48-4.52-15.86-1.65-23.16c0.79-2.01,1.79-3.95,2.88-5.82c0.87-1.5,2.73-3.37,3.13-5.04
		c0.37-1.52-0.45-3.08-0.77-4.56c-0.51-2.37-0.44-4.44,0.04-6.82c1.57-7.71,6.5-15.31,13.61-19.03c1.54-0.81,3.98-1.86,5.72-1
		c0.93,0.46,2.49,2.34,1.27,3.2c-0.34,0.24-2.26-0.59-2.92-0.47c-1.72,0.31-3.56,2.18-4.72,3.36c-3.86,3.94-10.56,13.72-7.54,19.59
		c-0.29-0.56,7.12-6.07,7.93-6.66c2.56-1.86,5.32-3.68,8.26-4.9c5.6-2.32,13.47-3.69,18.49,0.58
		C175.14-181.16,149.67-165.09,140.25-165.88C136.98-165.75,142.08-165.73,140.25-165.88z M159.67-185.26
		c1.19-5.37-12.46-0.39-13.96,0.41c-2.24,1.19-13.15,7.79-12.62,11.03c0.25,1.5,6.25,2.03,7.56,2.01c2.52-0.04,5.34-0.96,7.64-1.96
		C151.28-175.08,160.95-181.11,159.67-185.26C159.89-186.25,160-184.19,159.67-185.26z"/>
	<path id="XMLID_2344_" class="st2" d="M64.21-51.98c3.08,0,13,0.05,14.65-3.4c-2.33-0.18-10.7,1.06-12.01-0.76
		c-2.28-3.18,6.16-3.62,8.04-3.9c3.56-0.54,7.75-1.84,11.24-1.45c3.81,0.43,4.18,3.36,3.66,6.95c-0.49,3.41-1.08,6.67-1.79,10.05
		c-0.61,2.94-0.43,8.62-3.24,10.42c-2.35,1.5-4.81-0.55-5.1-3.13c-0.37-3.33,2.07-6.96,1.88-10.37C62.58-37.18,24.66-47.35,33-74.83
		c3.54-11.69,13.61-19.7,24.12-24.92c8.45-4.2,23.04-7.26,30.73,0.09c9.25,8.84-3.61,22.72-11.78,26.61
		c-4.28,2.04-9.42,3.05-14.06,1.78c-1.81-0.5-5.41-1.8-5.82-4.01c-0.71-3.84,2.69,0.02,3.76,0.5c9.51,4.24,22.49-5.42,25.25-14.41
		c4-13.04-17.88-8.38-23.87-5.65c-9.85,4.49-20.64,13.52-21.55,25.07C38.7-56.27,53.28-51.98,64.21-51.98z"/>
	<path id="XMLID_2343_" class="st2" d="M-156.1,144.33c3.39,0.32,1.87,12.25,3.02,14.5c4.33-7.42,9.92-14.26,15-21.19
		c2.6-3.56,5.26-7.06,7.76-10.69c2.06-2.99,6.68-7.42,7.27-11c-1.24-0.07-3.44,1.39-4.62,1.88c-2.07,0.86-4.15,1.72-6.24,2.53
		c-3.42,1.32-8.41,3.87-11.88,1.32c-6-4.42,3.79-12.75,6.81-15.8c10.92-11.05,21.35-22.67,31.82-34.15
		c2.67-2.93,5.53-5.83,8.54-8.41c0.96-0.83,8.08-5.62,7.38-0.98c-0.26,1.71-5.04,4.17-6.48,5.49c-2.88,2.63-5.48,5.59-8.03,8.53
		c-5.57,6.4-11.22,12.72-16.76,19.15c-5.18,6-11.72,12.03-15.73,18.85c6.67,0,14.3-9.42,21.2-6.18c7.49,3.53-1.47,14.93-4.09,19.06
		c-4.32,6.82-9.22,13.35-14.02,19.84c-2.2,2.98-4.62,5.76-6.94,8.64c-1.42,1.77-5.86,5.37-5.95,7.36c3.62-1.19,7.35-2.1,11.08-2.88
		c1.96-0.41,8.74-1.99,9.7,0.57c1.31,3.48-16.77,6.31-19.64,7.21c-2.57,0.81-7.65,3.92-10.25,1.81c-1.64-1.33-1-6.62-0.8-8.48
		C-157.82,160.09-157.52,144.19-156.1,144.33z"/>
	<path id="XMLID_2342_" class="st2" d="M-138.93,115.87c0.17-0.4,0.68-1.08,0.68-1.53c-0.35,0.12-0.97,2.07-1.17,2.52"/>
	<path id="XMLID_2341_" class="st2" d="M95.61,38.67c5.36-0.09,11.76,2.26,12.77,8.19c1.13,6.66-5.21,11.84-8.92,16.48
		c-1.52,1.9-4.19,4.51-2.92,7.19c1.19,2.51,5.4,3.18,7.78,3.88c5.49,1.61,14.3,5.12,9.25,12.1c-3.5,4.84-9.64,7.31-13.79,11.52
		c-2.61,2.65-3.84,4.05,0.28,5.09c3.37,0.85,7.11,1.37,10,3.43c5.96,4.25-0.21,9.77-4.06,13.03c-1.54,1.3-9.98,6.85-9.12,8.98
		c0.61,1.52,8.73,3.33,10.27,4.26c2.39,1.45,4.85,3.58,5.3,6.45c1.05,6.8-7.63,11.39-7.37,18.39c3.01-2.79,5.65-6.02,8.93-8.51
		c1.96-1.49,8.14-5.03,5.57,0.49c-1.72,3.68-5.21,7.22-7.75,10.39c-1.81,2.25-4.5,7.04-7.3,8.15c-3.38,1.34-6.5-2.3-8.65-4.35
		c-3.04-2.91-6.1-5.73-8.97-8.81c-1.11-1.19-3.72-3.19-3.04-4.99c0.82-2.17,3.54-1.28,4.99-0.51c1.71,0.92,3.15,2.43,4.62,3.66
		c0.75,0.63,3.96,4.17,5,4.07c-0.38,0.04,1.1-5.79,1.38-6.39c1.45-3.14,3.96-5.35,5.79-8.22c4.07-6.42-8.32-7.12-11.8-9.73
		c-6.29-4.73,0.18-10.59,4.4-13.88c2.71-2.12,6.02-4,8.21-6.71c2.1-2.61-0.82-2.72-3.53-3.44c-4.66-1.23-13.07-1.79-11-8.88
		c1.91-6.55,10.11-10.15,14.9-14.27c2.71-2.33,3.64-3.06-0.01-4.67c-3.29-1.45-6.93-1.84-10.18-3.38
		c-5.99-2.83-7.85-8.61-4.38-14.22c2.43-3.92,14.26-12.58,10.04-17.66c-2.39-2.88-6.76-2.03-9.69-3.56
		C88.35,40,93.12,38.67,95.61,38.67C98.53,38.62,94.76,38.67,95.61,38.67z"/>
	<path id="XMLID_2340_" class="st2" d="M-57.07,71.69c5.2,0.73,8.42,1.99,12.16,5.71c3.29,3.27,6.18,6.74,9.87,9.58
		c7.06,5.43,16.87,10.82,26,10.34c9.23-0.48,17.84-4.9,25.99-8.87c4.46-2.17,8.97-4.29,13.48-6.36c2.24-1.03,4.42-2.17,6.63-3.24
		c2.06-1,5.12-1.68,6.71-3.28c-3.43-1.42-8.85-1.01-12.59-1.6c-2.15-0.34-9.97-2.55-3.86-3.82c3.79-0.79,9.01,0.07,13,0.45
		c4.32,0.41,8.78,0.63,13.09,1.22c5.34,0.73,2.61,3.74,1.48,7.45c-1.27,4.18-2.12,10.29-4.55,13.93c-2.9,4.33-6.5,0.85-5.39-3.35
		c0.63-2.37,1.96-4.84,2.95-7.09c0.43-0.97,2.39-3.94,2-5.07c-14.24,6.1-26.09,16.56-40.32,22.73c-6.46,2.8-14.19,4.92-21.3,4.46
		c-6.89-0.44-13.66-3.66-19.54-7.19c-6.87-4.12-12.02-9.1-17.28-15.06c-4.77-5.4-9.84-6.63-16.73-4.53
		c-6.57,2.01-12.44,6.31-17.59,10.72c-2.22,1.9-6.61,5.16-7.2,8.15c-0.13,0.67,0.64,1.64,0.2,2.2c-0.82,1.05-2.38-0.47-2.83-1.09
		c-3.99-5.61,10.28-15.59,13.75-18.14C-73.24,75.76-64.47,71.01-57.07,71.69C-55.95,71.85-57.99,71.61-57.07,71.69z"/>
	<path id="XMLID_2338_" class="st2" d="M61.96-151.87c0-7.03-2.56-13.65-9.15-16.94c-6.33-3.17-13.9-0.9-19.92,1.9
		c-7.3,3.4-13.91,8.98-19.53,14.67c-5.04,5.1-10.84,10.97-13.07,17.99c-0.56,1.77-0.31,8.07-3.22,4.05
		c-1.87-2.58-0.06-7.72,1.12-10.29c2.99-6.56,8.61-12.77,13.72-17.75c9.42-9.17,24.34-21.34,38.42-18.69
		c16.22,3.04,22.06,19.64,18.88,34.29c2.47-0.33,7.34-4.83,8.46,0.49c0.8,3.8-5.29,8.44-7.72,10.66
		c-3.61,3.3-13.14,14.05-15.71,3.84c-0.82-3.28-0.94-6.99-0.95-10.34c-0.01-4.38-0.65-8.68,0.06-13.05
		c0.69-4.31,3.95-2.94,4.89,0.56c0.24,0.89,1.02,8.95,1.62,8.95C61.48-141.54,61.92-150.55,61.96-151.87
		C61.96-152.79,61.92-150.48,61.96-151.87z"/>
	<path id="XMLID_2337_" class="st2" d="M-65.73,132.35c0-0.78,0.21-2.23-0.16-3c-2.35,1.73-3.97,6.6-5.36,9.13
		c-2.11,3.85-4.16,7.72-6.06,11.67c-1.79,3.72-3.12,5.47,1.66,3.44c2.68-1.14,6.46-3.21,9.45-2c10.12,4.07-10.26,35.12-13.13,40.77
		c-3.47,6.85-6.88,13.67-9.43,20.91c-0.37,1.05-0.48,3.33-1.93,3.54c-1.59,0.23-1.99-1.36-2.22-2.51
		c-0.72-3.46,1.63-8.09,2.75-11.26c2.65-7.52,5.72-14.76,9.2-21.93c1.01-2.07,12.39-22.68,11.05-23.45
		c-0.92-0.52-4.86,1.96-5.65,2.33c-1.88,0.87-4.23,2.37-6.38,2.35c-4.31-0.04-5-4.42-4.08-7.67c1.39-4.94,4.64-9.88,7.29-14.22
		c1.5-2.46,2.97-4.94,4.51-7.38c1.09-1.73,3.65-4.4,4.17-6.3c-3.31-0.63-8.9,2.45-12.11,3.64c-1.34,0.5-3.98,1.79-4.93-0.07
		c-0.77-1.5,0.49-2.31,1.54-3.1c3.17-2.38,7.92-3.46,11.68-4.51c3.7-1.03,7.67-3.21,11.37-3.89c4.47-0.82,2.73,3.79,2.67,6.52
		c-0.1,4.35,0.29,8.69,0.59,13.03c0.13,1.92,1.18,8.39-2.32,5.82C-64.2,142.27-66.13,135.38-65.73,132.35
		C-65.73,131.25-65.91,133.71-65.73,132.35z"/>
	<path id="XMLID_2336_" class="st2" d="M165.85,200.65c14.19,0,28.18-1.2,42.32-1.87c7.56-0.36,15.13-0.81,22.71-0.86
		c3.82-0.03,7.64,0.13,11.46-0.11c3.15-0.2,8.43,0.77,11.14-0.54c-3.48-1.89-7.55-3.67-11.22-5.28c-6.19-2.71,0.59-2.31,3.68-1.12
		c4.38,1.69,8.53,3.53,13.17,4.43c2.07,0.4,8.94,0.24,8.54,3.52c-0.3,2.46-7.63,5.91-9.62,7.23c-3.06,2.03-7.22,6.56-10.82,7.37
		c-4.86,1.09,1.19-4.12,2.3-5.06c2.9-2.45,7.12-5.4,9.45-8.36c-2.41-0.7-6.43,0.14-8.95,0.27c-4.25,0.22-8.51,0.58-12.76,0.74
		c-6.86,0.26-13.69,0.75-20.54,1.33c-14.95,1.27-30.05,2.5-45.05,2.63c-13.92,0.12-28.68,0.64-42.2-3.18
		c-4.93-1.39-15.37-4.67-12.23-11.86c2.68-6.13,12.89-7.71,18.58-8.76c7.32-1.36,14.92-1.74,22.41-1.87
		c1.5-0.03,21.57,1.24,20.78,3.57c-0.34,1.01-8.97-0.57-10.22-0.69c-5.21-0.52-10.54,0.07-15.74,0.31
		c-9.27,0.42-21.95,0.95-29.85,6.53c-8.63,6.1,9.11,9.42,13.08,9.99C146.07,200.42,155.93,200.65,165.85,200.65z"/>
	<path id="XMLID_2335_" class="st2" d="M-155.19-194.12c0-1.31-0.57-4.13,0.73-4.93c1.75-1.08,2.44,1,2.9,2.34
		c0.89,2.63,0.48,7.01,2.1,9.15c10.65-18.53,26.98-32.4,47.27-39.53c20.17-7.09,44.89-8.47,63.89,2.89
		c9.3,5.56,17.02,13.6,19.93,24.27c0.25,0.92,1.7,5.39-0.24,5.2c-1.01-0.1-2.81-5.85-3.29-6.83c-2.51-5.08-5.76-9.45-9.99-13.22
		c-14.4-12.87-35.8-15.47-54.12-12.06c-12.14,2.26-24.04,7.27-34.26,14.25c-5.28,3.6-10.32,7.78-14.57,12.57
		c-3.58,4.04-9.63,10.54-10.72,15.99c4.81-0.72,9.09-6.15,13.78-7.57c2.49-0.76,5.34,0.46,3.61,3.26c-1.4,2.28-5.93,3.71-8.22,4.93
		c-2.56,1.36-5.14,2.63-7.82,3.75c-1.96,0.82-5.82,3.39-7.91,2.56C-155.81-178.57-155.09-190.75-155.19-194.12
		C-155.19-195.49-155.15-192.72-155.19-194.12z"/>
	<path id="XMLID_2332_" class="st2" d="M38.15-215.93c-4.61,0-9.17,0.14-13.73,0.72c-2.18,0.28-8.02,0.11-9.29,1.9
		c3.77,1.52,7.97,1.51,11.7,3.54c1.61,0.87,3.8,2.1,3.91,4.19c0.17,3.11-2.53,1.91-4.46,1.45c-4.16-1-8.51-1.47-12.74-2.15
		c-3.23-0.51-10.95-0.09-12.29-4.01c-1.34-3.93,4.65-7.13,7.22-9.02c4.16-3.07,8.28-6.19,12.46-9.22c1.15-0.83,3.35-2.85,4.97-2.27
		c2.27,0.82,1.22,2.92,0.23,4.35c-0.64,0.93-9.3,9.28-9.32,9.28c0.7,0.31,4.88-0.99,5.57-1.13c2.8-0.54,5.71-0.83,8.6-1.05
		c7.56-0.57,15.46-1.28,23,0c3.52,0.6,5.98,2.21,8.98,3.91c2.85,1.61,5.66,0.09,8.89-0.29c6.68-0.78,13.54,0.28,19.77,2.74
		c4.26,1.68,13.77,6.9,9.13,12.82c-1.21,1.54-3.28,2.44-2.93,0.18c0.24-1.53,1.4-1.65,0.94-3.5c-0.33-1.33-1.46-2.14-2.52-2.85
		c-5.26-3.53-13.16-5.2-19.34-5.29c-2.35-0.03-7.06,0.31-9.11,1.6c-1.82,1.15-0.89,3.13-1.49,5.48c-1.55,6.11-9.19,11.01-15.42,7.85
		c-9.03-4.59,3.17-13.49,7.91-15.46C54.76-216.74,43.47-215.93,38.15-215.93z M55.53-200.56c4.76-0.2,6.49-3.01,6.35-7.36
		C60.29-207.17,48.18-200.56,55.53-200.56C56.35-200.59,54.89-200.56,55.53-200.56z"/>
	<path id="XMLID_2331_" class="st2" d="M-117.5-143.6c2.36,0.54,4.71,1.04,7.05,1.69c0.38,0.1,4.92,1.48,4.83,1.11
		c-1.12-4.9-2.31-8.78-1.8-13.96c0.49-5,1.99-9.97,4.04-14.54c3.79-8.43,9.43-15.82,16.42-21.86c5.99-5.17,14.05-10.1,22.23-10.17
		c1.53-0.01,8.9,1.19,7.55,4.15c-0.63,1.38-2.17,0.34-3.3,0.14c-2.31-0.41-4.49-0.08-6.77,0.49c-16.8,4.18-29.46,24.34-31.98,40.36
		c-0.68,4.29-0.66,8.67,0.82,12.81c0.33,0.91,1.38,4.29,2.33,4.32c0.92,0.03,2.76-5.12,3.25-6.01c1.76-3.2,3.68-7.59,6.38-10.11
		c1.22-1.13,2.66-1.8,4.05-0.54c1.66,1.51,0.47,3.53-0.23,5.15c-2,4.59-4.82,8.84-7.33,13.16c-2.29,3.94-3.76,8.27-8.9,6.49
		c-5.15-1.78-10.16-4.37-15.1-6.67c-1.38-0.64-5.28-1.96-5.85-3.78C-120.65-144.03-117.74-142.5-117.5-143.6
		C-115.39-143.12-117.51-143.54-117.5-143.6z"/>
	<path id="XMLID_2330_" class="st2" d="M235.81-76.35c-0.3,3.21-3.04,10.37-1.89,13.27c1.22-0.75,2.32-3.3,3.13-4.5
		c1.3-1.9,2.64-3.76,3.96-5.63c2.34-3.3,4.73-6.56,7.27-9.71c3.92-4.87,8.19-9.48,12.23-14.19c4.56-5.31,9.43-10.32,14.11-15.5
		c2.82-3.12,5.58-6.28,8.4-9.4c1.57-1.74,5.19-7.11,7.91-7.01c2.79,0.1,1.42,2.12,0.36,3.53c-2.18,2.91-4.56,5.66-6.84,8.5
		c-4.76,5.93-9.54,11.84-14.21,17.84c-4.6,5.91-9.28,11.85-14.07,17.59c-4.61,5.53-10.57,11.88-13.65,18.42
		c1.45,0.29,4.44-1.64,5.94-2.21c2.34-0.89,4.72-1.8,7.12-2.53c1.7-0.51,4.45-1.31,5.61,0.71c0.82,1.44-0.39,3.49-1.53,4.38
		c-3.1,2.43-8.86,3.21-12.52,4.73c-4.35,1.81-8.67,3.68-12.92,5.65c-2.65,1.23-6.31,2.11-7.14-1.69c-0.66-3.05,1.31-8.36,1.99-11.34
		c0.92-4.07,2.24-7.98,3.3-12.02C233.73-82.57,235.28-80.32,235.81-76.35C235.76-75.75,235.65-77.58,235.81-76.35z"/>
	<path id="XMLID_2329_" class="st2" d="M-54.7-149.23c0-5.36,3.3-4.97,4.89-0.38c1.1,3.17,1.59,8.28,3.59,10.92
		c2.87-2.87,12.24-39.84,18.12-35.53c2.92,2.14-2.36,13.72-3.2,16.48c-2.09,6.88-3.57,14.15-6.05,20.86
		c3.33-1.31,5.98-3.73,9.22-5.2c3.7-1.68,5.17,0.09,2.82,3.74c-3.68,5.71-11.71,8.5-16.64,13.1c-5.65,5.27-8.14-0.25-9.51-5.64
		C-52.96-136.82-54.7-143.11-54.7-149.23z"/>
	<path id="XMLID_2328_" class="st2" d="M-49.58,2.8c-11.58,0-26.72,6.77-32.75,17.07c-0.34,0.58-1.89,2.85-1.52,3.65
		c0.32,0.7,1.71,0.39,1.78,0.57c0.23,0.59,1.01,0.64-0.02,1.53c-0.63,0.54-2.53,0.3-3.13-0.03c-4.36-2.46,2.25-11.41,4.35-13.72
		c8-8.79,22.02-14.71,33.87-14.22c6.12,0.25,12.66,2.88,16.57,7.73c4.1,5.09,3.27,10,2.33,15.94c2.6-0.47,6.28-5.38,8.35-7.14
		c1.39-1.18,7.4-5.34,6.82,0.06c-0.3,2.77-6.52,5.69-8.49,7.16c-3.17,2.36-6.56,4.55-9.64,6.96c-1.29,1-1.12,2.05-3.21,1.57
		c-1.89-0.44-2.67-2.57-3.55-4.02c-1.96-3.21-4.36-6.33-6-9.72c-1.78-3.69-0.11-6.21,3.24-3.03c1.27,1.2,4.83,7.87,6.24,7.73
		c0.9-0.09,0.96-5.34,0.96-5.61c0.08-2.76-0.37-4.76-2.14-6.9C-39.22,3.91-44.24,3.34-49.58,2.8C-50.5,2.8-48.19,2.94-49.58,2.8z"/>
	<path id="XMLID_2327_" class="st2" d="M216.6-218.39c-2.84,0.33-5.64,0.28-8.47,0.5c-1.37,0.11-4.4-0.06-5.47,0.58
		c1.6,1.1,11.03,1.38,7.35,5.59c-2.41,2.76-8.68,0.88-11.58,0.53c-4.1-0.5-23.59,0.32-18.83-8.16c1.85-3.29,7.93-5.38,11.15-6.9
		c4.68-2.21,9.44-3.83,14.34-5.44c2.77-0.91,8.67-1.65,3.79,1.68c-3.74,2.55-8.85,4.13-12.09,7.22c5.66,0.25,11.47-1.04,17.3-0.69
		c6.84,0.41,13.81,0.09,20.66,0.08c1.06,0,8.84-0.91,7.57,1.97c-0.8,1.82-5.71,1.56-7.26,1.69c-2.35,0.19-4.59,0.5-6.93,0.74
		c-1.77,0.18-3.56,0.12-5.34,0.24C220.96-218.64,218.37-217.85,216.6-218.39C213.8-218.07,218.13-217.93,216.6-218.39z"/>
	<path id="XMLID_2326_" class="st2" d="M-40.11-93.44c-0.36,1.92-1.74,11.91-0.15,13.05c-1.09-0.78,7.93-10.37,8.69-11.09
		c4.25-4.03,9.21-7.3,14.47-9.86c9.97-4.85,24.85-8.26,35.72-4.43c1.05,0.37,5.22,2.28,2.91,3.81c-0.81,0.54-3.23-0.61-4.35-0.71
		c-5.66-0.51-11.46,0.05-16.95,1.47c-5.99,1.55-11.78,3.48-17.1,6.73c-1.19,0.73-11.35,6.89-10.57,8.47
		c0.67,1.36,18.99-8.74,20.41-5.72c0.99,2.11-19.95,10.76-22.32,11.83c-3.6,1.62-7.7,3.98-11.55,4.84c-4.28,0.95-4.39-2.35-3.94-5.5
		c0.56-3.95,0.45-7.89,1.33-11.8c0.23-1.03,0.41-3.61,1.72-3.94C-40.09-96.73-40.11-94.56-40.11-93.44
		C-40.83-89.58-40.11-94.03-40.11-93.44z"/>
	<path id="XMLID_2325_" class="st2" d="M-164.65,195.91c0-5.34,3.81-0.1,5.03,1.66c2.42,3.49,6.33,5.43,10.44,6.17
		c3.85,0.7,7.89-0.01,11.55-1.39c1.3-0.49,10.37-6.9,9.9-7.14c-1.05-0.54-6.2,1.27-7.49,1.4c-2.08,0.21-7.55,0.28-7.72-2.99
		c-0.14-2.6,2.74-2.72,4.53-2.96c3.58-0.49,6.91-1.46,10.44-2.17c2.42-0.49,5.52-2.2,7.91-1.42c2.69,0.87,1.75,2.62,1.43,4.82
		c-0.37,2.48-0.43,4.59,0.11,7.03c0.32,1.42,0.7,2.92,1.27,4.26c0.56,1.31,2.09,2.62,2.5,3.82c0.76,2.22-0.34,3.05-2.87,1.88
		c-2.81-1.3-4.16-4.9-5.23-7.52c-1.42-3.44-1.86-0.89-3.85,1.3c-2.43,2.68-5.07,4.59-8.38,6.01
		C-145.17,212.97-164.65,210.41-164.65,195.91z"/>
	<path id="XMLID_2324_" class="st2" d="M49.96,196.03c-0.43-4.34-3.74-30.11,3.28-28.78c3.9,0.74,3.03,10.03,3.35,12.97
		c0.47,4.33,0.28,8.99,1.15,13.24c2.51-1.49,4.12-7.48,6.81-7.93c4.26-0.71,0.84,5.86,0.06,7.32c-2,3.76-4.15,7.42-6.16,11.18
		c-1.47,2.74-3.24,7.04-7.11,6.36c-3.52-0.62-5.78-5.95-7.51-8.63c-2.13-3.29-4.64-7.23-5.82-11.01c-1.35-4.33,1.48-6.21,4.6-3.05
		c2.73,2.76,4.19,6.65,6.94,9.4c0.35-0.69,0.2-1.61,0.2-2.36c0.3-0.03,0.13,2.65,0.24,2.71C50.05,197.49,49.9,195.27,49.96,196.03
		C49.66,193.02,50.06,197.37,49.96,196.03z"/>
	<path id="XMLID_2323_" class="st2" d="M11.76,205.38c-6.51,0-13.06-0.45-19.54-0.79c-6.88-0.37-13.74,0.27-20.6,0.3
		c-7.26,0.03-14.5,0.49-21.77,0.52c-1.61,0.01-13.56,0.49-7.69-2.96c1.78-1.05,6.14-1.18,8.15-1.39c2.62-0.28,5.28-0.18,7.9-0.41
		c7.03-0.62,14.12-1.22,21.19-1.16c7.25,0.06,14.44-0.05,21.66,0.44c1.93,0.13,13.27,2.87,14.28,1.75c0.21-0.23-5.14-4.97-5.24-5.8
		c-0.44-3.63,3.13-1.72,4.96-0.49c2.6,1.76,5.91,4.25,8.16,6.42c1.97,1.9,2.09,3.1,0.07,5.18c-2.18,2.25-4.94,4-7.27,6.11
		c-1.43,1.29-5.55,6.78-7.17,6.69c-5.37-0.31,6.51-12.74,7.76-14.22C15.18,205.06,13.27,205.38,11.76,205.38z"/>
	<path id="XMLID_2322_" class="st2" d="M255.86,63.43c0.23-3.26,3.13-3.15,5.12-1.39c2.18,1.93,3.03,5.88,4.4,8.4
		c1.92,3.54,1.81,3.47,4.51,0.45c2.48-2.77,5.29-5.32,8.12-7.73c5.26-4.48,11.2-8.32,16.87-12.26c2.34-1.62,5.81-4.69,8.79-5.04
		c3.13-0.38,3.14,1.48,1.41,3.45c-2.11,2.4-5.34,4.36-7.78,6.42c-2.92,2.47-5.8,4.96-8.6,7.56c-5.26,4.88-10.77,9.69-15.13,15.42
		c-3.57,4.69-6.49,7.21-10.79,1.46C259.81,76.21,255.27,68.61,255.86,63.43C255.91,62.81,255.68,65.04,255.86,63.43z"/>
	<path id="XMLID_2321_" class="st2" d="M232.56,51.57c-1.57,2.93-4.92,5.62-7.16,8.12c-1.47,1.64-5.37,4.3-5.06,6.34
		c0.19,1.26,3.7,3.69,4.64,4.54c1.32,1.21,3.84,2.77,4.66,4.37c1.63,3.18-1.03,4.28-3.81,3.32c-3.88-1.34-5.81-4.54-9-6.75
		c-2.06-1.43-0.98-1.35-2.94-0.12c-1.37,0.86-2.56,2.47-3.74,3.61c-3.13,3.02-6.2,6.16-9.65,8.83c-1.54,1.19-5.06,2.82-4.75-0.58
		c0.23-2.48,5.7-6.59,7.3-8.25c1.65-1.72,8.07-6.52,8.15-8.97c0.09-2.68-13.31-13.16-8.34-15.97c1.92-1.09,6.29,4.77,7.58,6.05
		c0.84,0.84,3.89,4.94,4.99,5.03c1.12,0.08,1.56-0.69,2.51-1.61c2.74-2.65,5.45-5.47,8.49-7.78
		C227.74,50.74,232.98,47.3,232.56,51.57C232.57,51.56,232.68,50.4,232.56,51.57z"/>
	<g id="XMLID_873_" class="st3">
		<path id="XMLID_2320_" class="st4" d="M-144.16,5.24c0,6.39-1.95,14.58-0.25,20.77c2.48-1.87,3.89-6.51,7.5-6.9
			c3.34-0.36,3.33,2.44,1.95,4.6c-2.22,3.47-5.06,6.51-7.21,10.13c-1.49,2.5-3.54,8.12-7.06,8.02c-3.73-0.11-3.95-5.37-4.93-8.03
			c-1.53-4.19-3.65-8.07-4.85-12.41c-1.12-4.07,1.22-4.55,3.22-0.96c0.38,0.69,5.12,10.86,5.47,10.67c0.7-0.38,0.53-5.74,0.62-6.87
			c0.21-2.74,0.17-5.47,0.41-8.21c0.54-5.98,0.58-11.98,1.04-17.96c0.11-1.43-0.89-14.33,2.89-10.74c1.34,1.27,0.77,6.37,0.83,8.18
			C-144.43-1.25-144.42,2.02-144.16,5.24C-144.16,7.26-144.32,3.32-144.16,5.24z"/>
		<path id="XMLID_2319_" class="st4" d="M-117.36,2.91c0,3.06-2.23,38.19-5.32,37.29c-2.12-0.62,0.42-17.4,0.51-19.83
			c0.13-3.74,0.4-7.48,0.45-11.23c0.02-1.27-0.6-10.3-0.3-10.53c-2.93,2.2-4.37,7.16-7.69,8.79c-3.96,1.95-3.46-2.55-2.04-4.67
			c2.07-3.1,4.61-5.99,6.91-8.93c1.43-1.84,3.73-6.78,6.82-6.03c1.55,0.38,1.26,1.38,1.84,2.4c0.84,1.46,1.63,2.87,2.75,4.34
			c2.12,2.77,5.07,5.79,6.43,9c1.37,3.24-1.09,6.85-4.72,4.64c-2.13-1.3-4.56-6.59-5.43-8.89C-117.58,0.31-117.36,1.82-117.36,2.91z
			"/>
	</g>
	<g id="XMLID_843_" class="st3">
		<path id="XMLID_872_" class="st4" d="M3.74,177c-1.11,0.09-5.64-0.11-5.62-1.93c0.02-1.27,5.36-0.39,6.39-0.53
			c5.77-0.8,10.37-5.56,12.93-10.55c2.57-5.01,3.29-10.39,1.94-15.88c-0.71-2.87-1.9-5.44-4-7.56c-0.17-0.17-4.6-3.96-5.02-2.92
			c-0.59,1.45,1.55,4.71,0.61,6.65c-1.07,2.21-2.42,1.68-3.77,0.1c-1.92-2.25-4.37-10.78-1.6-12.82c1.22-0.9,4.23-1.55,5.74-2.07
			c2.25-0.77,5.1-1.54,7.45-1.84c7.86-1.01-4.07,5.73-4.07,5.81c0.06,0.93,3.41,2.72,4.21,3.58c1.88,2.02,3.13,4.47,4,7.07
			c1.54,4.66,1.74,10.07,0.49,14.8C20.9,168.47,14.54,177,3.74,177C2.17,177.13,5.07,177,3.74,177z"/>
		<path id="XMLID_866_" class="st4" d="M-6.69,130.37c0.68-0.01,4.6,0.18,4.19,1.37c-0.36,1.04-6.34,1.23-7.11,1.44
			c-4.96,1.37-9.54,4.44-12.36,8.79c-3.05,4.71-4.15,10.4-2.86,15.84c0.69,2.89,1.9,5.58,3.79,7.88c0.85,1.04,4.87,5.59,6.39,4.96
			c1.04-0.43-0.58-5.35,1.27-6.4c2.37-1.36,2.79,1.68,3.2,3.21c0.74,2.8,2.04,4.66,3.29,7.11c0.92,1.79,0.88,3.09-0.65,4.67
			c-1.3,1.33-9.8,7.19-9.72,2.73c0.03-1.75,4.6-4.07,4.17-5.31c-0.28-0.81-4.99-2.59-5.79-3.16c-7.67-5.45-11.76-14.37-10.33-23.73
			C-27.38,137.8-17.53,132.4-6.69,130.37C-5.37,130.36-7.61,130.55-6.69,130.37z"/>
	</g>
	<path id="XMLID_840_" class="st2" d="M177.67,30.39c-2.77-0.17-7.44,1.66-9.87,0.55c-4.11-1.88,2.29-4.23,3.95-4.62
		c6.28-1.48,13-1.36,19.37-2.3c3.35-0.5,5.81,1.14,3.16,4.43c-2.39,2.98-5.72,5.59-8.42,8.31c-1.21,1.21-4.16,6.25-6,4.47
		c-2.46-2.37,2.86-5.56,2.2-7.6c-4.13,1.65-8.11,5.27-11.97,7.54c-1.33,0.78-9.51,6.7-9.58,3.12c-0.05-2.4,7-6.05,8.77-7.21
		c3.73-2.46,7.7-4.49,11.66-6.54C179.84,30.47,178.76,30.39,177.67,30.39C175.24,30.25,178.09,30.39,177.67,30.39z"/>
	<g id="XMLID_301_" class="st3">
		<path id="XMLID_835_" class="st4" d="M266.24,115.2c-1.77-0.14-11.53,0.01-8.52-3.66c2.37-2.89,8.83,0.04,11.93-1.03
			c-1-1.91-2.6-3.34-2.96-5.6c-0.42-2.65,0.59-3.32,2.65-1.8c1.6,1.18,2.83,3.29,4.52,4.59c1.86,1.43,4.69,2.96,5.42,5.35
			c0.69,2.26-0.51,3.39-2.07,4.79c-1.87,1.69-3.45,4.42-5.52,5.79c-1.96,1.3-3.36,0.75-3.16-1.7c0.17-2.13,2.34-4.55,3.41-6.29
			C271.55,115.51,266.28,114.83,266.24,115.2C264.26,115.05,266.25,115.14,266.24,115.2z"/>
		<path id="XMLID_310_" class="st4" d="M216.82,114.34c-2.02,0.2-4.19-0.32-6.2-0.57c-2.05-0.25-5.74-0.16-7.5-0.99
			c-5.04-2.37,2.19-4.6,4.77-4.42c3.52,0.25,8.32-0.07,11.71,0.88C224.99,110.77,220.2,114.34,216.82,114.34
			C215.02,114.51,217.35,114.34,216.82,114.34z"/>
		<path id="XMLID_309_" class="st4" d="M185.98,112.37c-2.53,0-10.03,0.78-11.98-0.99c-3.71-3.36,4.87-4.06,6.21-4.14
			c3.03-0.17,9.96-0.53,12.42,1.27C197.56,112.12,188.04,112.37,185.98,112.37z"/>
		<path id="XMLID_308_" class="st4" d="M237.77,110c2.79,0,9.48-0.45,11.19,2.34c1.92,3.14-4.16,2.86-5.9,2.78
			c-2.82-0.12-10.09,1.19-12.26-1.17C227.21,110.05,235.92,110,237.77,110z"/>
		<path id="XMLID_302_" class="st4" d="M159.09,111.18c-2.24,0-4.46-0.09-6.69-0.25c-1.53-0.11-5.64,0.49-6.76-0.34
			c-4.17-3.1,5.53-3.39,6.85-3.46c3.83-0.21,8.75-1.2,12.43,0.06c2.16,0.74,3.48,2,1.13,3.42
			C164.22,111.72,161.11,111.18,159.09,111.18z"/>
	</g>
</g>
<g id="Layer_3">
	<path id="XMLID_2339_" class="st4" d="M85.73,7.18c-15.06-2.21-32.61,0.16-46.77,5.61c-8.03,3.09-15.43,7.68-22.36,12.73
		c-3.59,2.61-7.02,5.37-10.33,8.32c-0.96,0.86-4.22,5.19-5.49,4.78c-4.27-1.38,10.24-14.31,11.91-15.59
		c7.03-5.42,14.44-10.57,22.62-14.1c13.72-5.93,30.08-9.77,45.08-8.75c8.73,0.6,17.49,1.1,26,3.62c3.58,1.06,7.07,2.45,10.38,4.16
		c2.35,1.21,4.72,2.5,6.9,4c1.61,1.11,3.11,3.36,4.81,4.14c0.18-3.31-2.64-6.89-2.71-10.34c-0.08-4.1,2.85-2.32,4.24,0.03
		c2.2,3.74,3.76,7.81,5.49,11.77c1.48,3.38,4.19,7.34,0.52,9.98c-3.22,2.32-7.45,3.44-11.04,5.02c-2.4,1.05-7.08,4.58-9.78,2.99
		c-8.43-4.94,12.46-9.54,13.74-10.48c-1.09-1.09-2.81-1.71-4.09-2.62c-1.85-1.31-3.5-2.87-5.36-4.17c-3.51-2.45-7.4-4.6-11.33-6.31
		C101.35,9,93.15,7.24,85.73,7.18C80.28,6.38,86.8,7.19,85.73,7.18z"/>
</g>
</svg>
